# File created by Blade
# Date/Time:  Wed Sep 24 20:26:02 2014
# Frame Rate: 120.000 fps
#------------------------------------------------------
:FULLY-SPECIFIED
:DEGREES
411
root -9.189689 32.599125 1.224168 121.274907 -81.641249 -91.069917
Spine -23.240590 10.509163 0.400875
Head -8.455969 -1.782937 11.922976
LeftShoulder -10.917960 23.043335 9.542229
LeftArm 21.486965 38.292705 -67.449172
LeftForeArm 3.311772 -0.000000 20.367700
LeftHand -25.821614 -0.000000 -4.202044
LeftHandThumb1 -26.253704 0.000000 33.147579
RightShoulder -18.718807 8.258690 -24.438228
RightArm -19.458568 -35.210390 101.846734
RightForeArm -23.643036 -0.000000 19.555777
RightHand -3.231380 -0.000000 14.277725
RightHandThumb1 -24.326973 -0.000000 -32.862282
LeftUpLeg -21.688676 3.448083 -1.703390
LeftLeg -6.062390 -0.000000 0.000000
LeftFoot -12.267363 13.112047 -9.816626
LeftToeBase 5.627238 -0.000000 -0.000000
RightUpLeg 8.324736 -12.929889 -4.602753
RightLeg 13.183773 -0.000000 -0.000000
RightFoot 28.476769 2.835358 -0.954793
RightToeBase 7.290704 -0.000000 -0.000000
412
root -9.191771 32.597870 1.225252 121.650466 -81.635811 -91.177966
Spine -23.383485 10.489932 0.325004
Head -8.631445 -1.747340 11.905275
LeftShoulder -10.887098 23.013450 9.566536
LeftArm 21.442520 38.376387 -67.401563
LeftForeArm 3.389222 -0.000000 20.333142
LeftHand -25.798801 -0.000000 -4.012868
LeftHandThumb1 -26.253704 0.000000 33.147579
RightShoulder -18.679289 8.222757 -24.383251
RightArm -19.510120 -35.286009 101.831106
RightForeArm -23.647535 -0.000000 19.602935
RightHand -3.206255 -0.000000 14.307769
RightHandThumb1 -24.326973 -0.000000 -32.862282
LeftUpLeg -21.915112 3.395625 -1.691488
LeftLeg -6.133756 -0.000000 0.000000
LeftFoot -12.249861 13.170748 -9.861824
LeftToeBase 5.557028 -0.000000 -0.000000
RightUpLeg 8.441544 -12.960859 -4.650257
RightLeg 13.205369 -0.000000 -0.000000
RightFoot 28.855190 2.756626 -1.005901
RightToeBase 8.144934 -0.000000 -0.000000
413
root -9.193554 32.594884 1.229102 122.174076 -81.645826 -91.450627
Spine -23.480283 10.493490 0.216146
Head -8.872050 -1.715354 11.904972
LeftShoulder -10.897726 23.025899 9.585581
LeftArm 21.501753 38.432197 -67.308122
LeftForeArm 3.444443 0.000000 20.289541
LeftHand -25.744812 -0.000000 -4.058248
LeftHandThumb1 -26.253704 0.000000 33.147579
RightShoulder -18.624384 8.216951 -24.326417
RightArm -19.567578 -35.284431 101.807288
RightForeArm -23.719921 -0.000000 19.626712
RightHand -3.177796 -0.000000 14.350427
RightHandThumb1 -24.326973 -0.000000 -32.862282
LeftUpLeg -22.120862 3.307117 -1.680976
LeftLeg -6.209294 -0.000000 0.000000
LeftFoot -12.250186 13.232721 -9.969577
LeftToeBase 5.496253 -0.000000 -0.000000
RightUpLeg 8.579427 -12.942564 -4.729414
RightLeg 13.204556 -0.000000 -0.000000
RightFoot 29.188804 2.714962 -0.968257
RightToeBase 8.738725 -0.000000 -0.000000
414
root -9.194766 32.592591 1.234744 122.781230 -81.671598 -91.795648
Spine -23.612646 10.506667 0.071478
Head -9.068083 -1.694985 11.932659
LeftShoulder -10.869494 23.000455 9.643970
LeftArm 21.483777 38.476895 -67.293494
LeftForeArm 3.577019 -0.000000 20.219184
LeftHand -25.701331 0.000000 -3.960069
LeftHandThumb1 -26.253704 0.000000 33.147579
RightShoulder -18.661138 8.140801 -24.267650
RightArm -19.520180 -35.399568 101.764565
RightForeArm -23.740403 -0.000000 19.575924
RightHand -3.147467 -0.000000 14.385418
RightHandThumb1 -24.326973 -0.000000 -32.862282
LeftUpLeg -22.351560 3.248787 -1.710158
LeftLeg -6.267849 -0.000000 0.000000
LeftFoot -12.218161 13.284752 -10.035486
LeftToeBase 5.424967 -0.000000 -0.000000
RightUpLeg 8.688754 -12.989365 -4.846467
RightLeg 13.232574 -0.000000 -0.000000
RightFoot 29.501099 2.801531 -0.978965
RightToeBase 9.327497 -0.000000 -0.000000
415
root -9.195907 32.590156 1.240384 123.540087 -81.694710 -92.295487
Spine -23.729884 10.522120 -0.081511
Head -9.277335 -1.661242 11.947049
LeftShoulder -10.894779 23.075368 9.668109
LeftArm 21.570393 38.441613 -67.215450
LeftForeArm 3.694710 -0.000000 20.190253
LeftHand -25.757584 -0.000000 -3.959352
LeftHandThumb1 -26.253704 0.000000 33.147579
RightShoulder -18.637784 8.110042 -24.208597
RightArm -19.539201 -35.484226 101.754691
RightForeArm -23.771930 -0.000000 19.557416
RightHand -3.142669 -0.000000 14.384847
RightHandThumb1 -24.326973 -0.000000 -32.862282
LeftUpLeg -22.599788 3.295620 -1.805366
LeftLeg -6.293796 -0.000000 0.000000
LeftFoot -12.220821 13.319042 -10.055297
LeftToeBase 5.463116 -0.000000 -0.000000
RightUpLeg 8.786191 -13.057848 -4.995869
RightLeg 13.285991 -0.000000 -0.000000
RightFoot 29.769848 2.947504 -0.909947
RightToeBase 9.825865 -0.000000 -0.000000
416
root -9.194571 32.589183 1.243349 124.212459 -81.702538 -92.681207
Spine -23.864196 10.555544 -0.230994
Head -9.536473 -1.682899 11.955167
LeftShoulder -10.860756 23.041305 9.733796
LeftArm 21.492575 38.402116 -67.253260
LeftForeArm 3.779113 -0.000000 20.179279
LeftHand -25.819910 -0.000000 -3.968274
LeftHandThumb1 -26.253704 0.000000 33.147579
RightShoulder -18.640407 8.094609 -24.144814
RightArm -19.593459 -35.488624 101.733392
RightForeArm -23.825634 -0.000000 19.570795
RightHand -3.189599 -0.000000 14.373373
RightHandThumb1 -24.326973 -0.000000 -32.862282
LeftUpLeg -22.893889 3.398444 -1.897838
LeftLeg -6.288164 -0.000000 0.000000
LeftFoot -12.214838 13.232781 -10.093486
LeftToeBase 5.435894 -0.000000 -0.000000
RightUpLeg 8.870648 -13.041471 -5.085024
RightLeg 13.288945 -0.000000 -0.000000
RightFoot 30.067147 2.954716 -0.747180
RightToeBase 10.158611 -0.000000 -0.000000
417
root -9.191616 32.587595 1.249291 125.023259 -81.745459 -93.209154
Spine -23.986653 10.583646 -0.433924
Head -9.800417 -1.670236 12.001962
LeftShoulder -10.828698 23.033467 9.791532
LeftArm 21.417986 38.318206 -67.269851
LeftForeArm 3.894353 -0.000000 20.223057
LeftHand -25.875510 -0.000000 -3.983829
LeftHandThumb1 -26.253704 0.000000 33.147579
RightShoulder -18.597872 8.079610 -24.070702
RightArm -19.658567 -35.465213 101.723244
RightForeArm -23.826376 -0.000000 19.596540
RightHand -3.251138 -0.000000 14.425745
RightHandThumb1 -24.326973 -0.000000 -32.862282
LeftUpLeg -23.202133 3.499207 -2.038241
LeftLeg -6.248367 -0.000000 0.000000
LeftFoot -12.227467 13.130114 -10.172677
LeftToeBase 5.458908 -0.000000 -0.000000
RightUpLeg 8.939582 -13.052721 -5.228195
RightLeg 13.336432 -0.000000 -0.000000
RightFoot 30.318289 3.100046 -0.616357
RightToeBase 10.398816 -0.000000 -0.000000
418
root -9.192029 32.586029 1.253590 125.816907 -81.762735 -93.730025
Spine -24.115490 10.580178 -0.591848
Head -10.008661 -1.607975 12.065352
LeftShoulder -10.825474 23.066343 9.837558
LeftArm 21.335344 38.209263 -67.311670
LeftForeArm 4.012782 0.000000 20.263345
LeftHand -25.881291 -0.000000 -3.984217
LeftHandThumb1 -26.253704 0.000000 33.147579
RightShoulder -18.555706 8.049167 -23.995458
RightArm -19.696417 -35.514399 101.702144
RightForeArm -23.815956 0.000000 19.612365
RightHand -3.306165 0.000000 14.490419
RightHandThumb1 -24.326973 -0.000000 -32.862282
LeftUpLeg -23.467564 3.627862 -2.165876
LeftLeg -6.270428 -0.000000 0.000000
LeftFoot -12.220660 13.029808 -10.236897
LeftToeBase 5.488099 -0.000000 -0.000000
RightUpLeg 9.016996 -13.090219 -5.362021
RightLeg 13.378854 -0.000000 -0.000000
RightFoot 30.635915 3.225169 -0.459297
RightToeBase 10.665242 -0.000000 -0.000000
